<svg viewBox="0 0 750.9 150.13" xmlns="http://www.w3.org/2000/svg"><g fill="#8181f2"><path d="m40.91 19.12v3h-36.27v-3zm-4.47 13.72c0 4.64-5.18 7.23-13.71 7.23s-13.73-2.59-13.73-7.23 5.2-7.24 13.73-7.24 13.71 2.59 13.71 7.24zm.23-17.56h-27.48v-13.63h27.21v2.95h-23.54v7.73h23.81zm-3.93 17.56c0-2.82-3.71-4.38-10-4.38s-10 1.56-10 4.38 3.71 4.37 10 4.37 10-1.56 10-4.37z"/><path d="m110.16 22.07v3h-36.36v-3h16.35v-4.2h-11.66v-9.78h23.41v-4.16h-23.5v-2.86h27.12v9.74h-23.41v4.19h24.26v2.86h-12.51v4.2zm-32.3 6.07h27.88v11.62h-3.66v-8.62h-24.22z"/><path d="m169.23 23.5a190.46 190.46 0 0 1 -25.47 1.5l-.53-3c3.48 0 7.37-.05 11.3-.18v-5.69h-7.73v-13.49h19.08v3h-15.41v7.55h15.68v2.95h-8v5.54c3.71-.18 7.33-.4 10.77-.81zm8 12.73v3h-27.3v-11.17h3.66v8.17zm-1.39-6.23h-3.66v-30h3.66z"/><path d="m278.29 18a180 180 0 0 1 -24.35 1.52l-.36-3h5v-10.89h-3.93v-2.9h21.48v2.9h-3.93v10.23c2-.13 4-.36 5.9-.58zm9 18.81v2.9h-27.54v-10h22.43v-4h-22.56v-2.93h26.17v9.61h-22.42v4.38zm-25.13-20.5c2.15 0 4.33-.14 6.52-.27v-10.41h-6.52zm23.63 4.55h-3.66v-20.86h3.66z"/><path d="m327.57 27.52a90.68 90.68 0 0 0 17.33-1.25l.4 3c-5.8 1-10.67 1.25-18.31 1.25h-3.08v-26.86h18.54v3h-14.88v8.34h13.13v2.94h-13.13zm27.52-27.52v40.16h-3.66v-22h-8.27v-3h8.27v-15.16z"/><path d="m411.74 4.33c0 11.4-5.22 21.72-18.18 28.19l-2-2.86c10.23-5.13 15.72-12.82 16.57-22.29h-14.7v-3zm16.8 15h-6.43v20.79h-3.67v-40.12h3.67v16.31h6.43z"/><path d="m522.23 12.46c-.67 4.69-4.69 7.82-10.18 7.82-6 0-10.32-3.75-10.32-9.25s4.33-9.2 10.32-9.2c5.4 0 9.42 3 10.18 7.64h8.18v-9.38h3.7v21.18h-3.7v-8.81zm-3.35-1.46c0-3.61-2.86-6.16-6.83-6.16s-6.84 2.55-6.84 6.16 2.86 6.21 6.84 6.21 6.83-2.56 6.83-6.21zm-2.72 12.51h3.39v16h-13.89v-16h3.44v5.05h7.06zm0 7.78h-7.06v5.4h7.06zm14.74-4.65a11.29 11.29 0 0 0 7.28 10.5l-1.83 2.77a12.82 12.82 0 0 1 -7.24-7.55 13.52 13.52 0 0 1 -7.19 7.55l-1.92-2.74a11.6 11.6 0 0 0 7.28-10.5v-3.39h3.58z"/><path d="m606.54 18.32v2.95h-36.28v-2.95zm-3.4-2.82c-6.21-1-12.15-4.11-14.7-8.58-2.5 4.47-8.48 7.6-14.74 8.58l-1.34-2.95c7.2-.89 14.21-5.18 14.21-10.27v-1.79h3.75v1.79c0 5 7.06 9.38 14.16 10.27zm-5 8.53h3.62v15.55h-26.9v-15.58h3.62v4.7h19.7zm0 7.51h-19.7v5.09h19.7z"/><path d="m645.68 26.63a94.76 94.76 0 0 0 18.9-1.88l.4 3.13a95.17 95.17 0 0 1 -19.66 1.87h-3.32v-25.82h3.66zm26.67-26.63v40h-3.66v-40z"/><path d="m714.08 27.07a97.23 97.23 0 0 0 18-1.34l.4 3a95.08 95.08 0 0 1 -18.94 1.43h-3.17v-26.27h18.63v3h-15zm32.08-8.17h-6.61v21.31h-3.67v-40.21h3.67v15.86h6.61z"/><path d="m41 113.31c-13.25 2.2-28.4 2.56-40 2.64l-1-7.69 7-.07v-14.06h-5.32v-7.46h36.32v7.46h-5.28v13.11c2.71-.15 5.27-.44 7.83-.74zm15.88 28.69v7.46h-47.44v-18.36h35.94v-3.88h-36v-7.39h45.62v18.17h-36v4zm-40.56-34c2.35-.07 4.76-.15 7.1-.29v-13.58h-7.1zm38.68 9.12h-9.69v-34.48h9.69z"/><path d="m93.48 127.07a158.71 158.71 0 0 0 24.74-1.75l.88 7.75c-9.74 1.54-18.38 1.76-29.72 1.76h-5.49v-46.63h31.18v7.8h-21.59v11h19.32v7.54h-19.32zm43.92-44.58v67.64h-9.66v-36.13h-11.57v-7.76h11.57v-23.75z"/><path d="m223.85 112.87v7h-61v-7zm-44.51 30h39.09v6.52h-48.68v-16.24h37.25v-3.44h-37.32v-6.52h46.92v16h-37.26zm27.53-52.63h-36.6v-6.5h46.11v15.88h-36.45v3.52h37.62v6.51h-47.14v-16.1h36.46z"/><path d="m341 113.38v7.91h-61v-7.91zm-7.32 24.23c0 7.91-8.86 12.37-23.42 12.37s-23.35-4.46-23.35-12.37 8.78-12.44 23.35-12.44 23.39 4.46 23.39 12.44zm.32-28.91h-46.61v-24.3h46.26v7.68h-36.65v9h37zm-10.18 28.91c0-3.51-4.61-5.12-13.61-5.12s-13.62 1.61-13.62 5.12 4.61 5 13.62 5 13.63-1.48 13.63-5z"/><path d="m423 118.65v7.69h-61v-7.69h25.6v-4.83h-18.08v-18.52h36.48v-4.1h-36.6v-7.32h46.12v18.23h-36.52v4.39h37.84v7.32h-19.58v4.83zm-54.31 11.5h47.29v19.61h-9.66v-12h-37.68z"/><path d="m464.83 92.74h11.17v7.69h-32.18v-7.69h11.49v-8.34h9.52zm10 26.72c0 9.37-6.15 16-14.79 16s-14.79-6.66-14.79-16 6.15-16.1 14.79-16.1 14.82 6.64 14.82 16.1zm-8.5 0c0-5-2.63-8-6.29-8s-6.3 3-6.3 8 2.64 8 6.3 8 6.32-2.95 6.32-8zm35.36-37v67.42h-9.15v-32.1h-5.12v29.35h-9v-63.32h9v26.19h5.12v-27.51z"/><path d="m586.85 127.51h-25.85v22.62h-9.66v-22.62h-25.34v-7.68h60.9zm-58-19.1c13.76-1.69 20.93-8.27 21.88-14.72h-19.4v-7.69h50v7.68h-19.15c1 6.45 8.06 13 21.74 14.72l-3.44 7.6c-11.78-1.61-20.05-6.67-24.08-13.55-4 6.88-12.3 11.94-24.08 13.55z"/><path d="m629.38 99.4c0 10.91 2.93 22.11 12.08 28.18l-5.27 7.47c-5.71-3.51-9.3-9.22-11.42-16-2.34 7.47-6.29 13.91-12.37 17.57l-5.78-7.25c9.88-6 13.47-18.08 13.47-29.57v-11.38h9.29zm13.47-15.74h9v63.34h-9v-33.84h-8.42v-7.83h8.42zm22.84-1.09v67.43h-9.15v-67.43z"/><path d="m750.9 134.32v7.83h-61v-7.83h13.47v-16.47c-5.13-3.15-8.2-8-8.13-13.84 0-11.05 10.61-18.15 25.11-18.15s25.13 7.14 25.13 18.14c0 5.86-3.08 10.69-8.13 13.84v16.47zm-46.19-30.32c0 6.67 6.22 10.55 15.59 10.55s15.7-3.87 15.7-10.55-6.29-10.54-15.66-10.54-15.63 3.82-15.63 10.54zm8.19 30.31h14.86v-12.87a40.39 40.39 0 0 1 -7.46.65 39.73 39.73 0 0 1 -7.4-.65z"/></g></svg>