<svg viewBox="0 0 52.02 49.73" xmlns="http://www.w3.org/2000/svg"><g fill="#8181f2"><path d="m43.19 23.61a3 3 0 0 0 -3 3v13.9a3.2 3.2 0 0 1 -3.19 3.2h-27.78a3.2 3.2 0 0 1 -3.22-3.2v-27.77a3.19 3.19 0 0 1 3.22-3.19h19a3 3 0 0 0 0-6h-19a9.24 9.24 0 0 0 -9.22 9.19v27.77a9.23 9.23 0 0 0 9.22 9.22h27.78a9.23 9.23 0 0 0 9.22-9.22v-13.88a3 3 0 0 0 -3.03-3.02z"/><path d="m51.14.88a3 3 0 0 0 -4.26 0l-24.49 24.49-3.9-3.89a3 3 0 0 0 -4.26 4.26l6 6a3 3 0 0 0 4.27 0l26.64-26.59a3 3 0 0 0 0-4.27z"/></g></svg>