<svg viewBox="0 0 110.11 85.84" xmlns="http://www.w3.org/2000/svg"><g fill="#b5b5b5"><path d="m50.35 14.25h-29.76a2.88 2.88 0 1 0 0 5.76h29.76a2.88 2.88 0 0 0 0-5.76zm2.41 51.13h34.08a2.9 2.9 0 1 0 0-5.75h-34.08a2.9 2.9 0 1 0 0 5.75z"/><path d="m110 82.1-5-15.79v-20.82a16.33 16.33 0 0 0 -16.28-16.32h-21.2v-14.58a14.61 14.61 0 0 0 -14.59-14.59h-33.93a14.6 14.6 0 0 0 -14.57 14.59v18.09l-4.3 13.7a2.89 2.89 0 0 0 .73 2.91 2.83 2.83 0 0 0 2.9.69l13.94-4.49h15.81v18.72a16.33 16.33 0 0 0 16.3 16.32h40.48l16 5.17a3 3 0 0 0 .89.14 2.84 2.84 0 0 0 2-.83 2.89 2.89 0 0 0 .82-2.91zm-48.24-52.93h-11.95a16.16 16.16 0 0 0 -15.2 10.63 2 2 0 0 0 -.51-.06h-16.84a2.66 2.66 0 0 0 -.88.14l-9.09 2.92 2.77-8.8a3.1 3.1 0 0 0 .12-.84v-18.57a8.86 8.86 0 0 1 8.82-8.84h33.93a8.85 8.85 0 0 1 8.83 8.84zm-22.49 16.32a10.56 10.56 0 0 1 10.54-10.56h38.91a10.57 10.57 0 0 1 10.55 10.56v21.27a3.39 3.39 0 0 0 .13.86l3.42 10.89-11.19-3.6a2.91 2.91 0 0 0 -.89-.14h-40.93a10.56 10.56 0 0 1 -10.54-10.56z"/><path d="m35.48 25.47h-14.89a2.88 2.88 0 0 0 0 5.76h14.89a2.88 2.88 0 0 0 0-5.76zm17.28 25.4h34.08a2.91 2.91 0 1 0 0-5.76h-34.08a2.91 2.91 0 1 0 0 5.76z"/></g></svg>