<svg viewBox="0 0 88.89 88.38" xmlns="http://www.w3.org/2000/svg"><path d="m24.09 14.28-3.09-12.34a2.57 2.57 0 0 0 -2.52-1.94h-15.91a2.57 2.57 0 0 0 -2.57 2.57v3.93a2.57 2.57 0 0 0 2.57 2.57h8.84a2.57 2.57 0 0 1 2.49 1.93l1.32 5.2 11.16 44.18a2.57 2.57 0 0 0 2.49 1.95h47.13a2.59 2.59 0 0 0 2.5-1.95l10.31-40.95a2.58 2.58 0 0 0 -2.49-3.21h-59.74a2.58 2.58 0 0 1 -2.49-1.94zm44.81 39h-33a2.58 2.58 0 0 1 -2.5-1.94l-5.72-22.84a2.57 2.57 0 0 1 2.5-3.2h44.48a2.57 2.57 0 0 1 2.5 3.2l-5.76 22.81a2.58 2.58 0 0 1 -2.5 1.94zm-29.57 25.82a9.29 9.29 0 1 0 -9.28 9.28 9.29 9.29 0 0 0 9.28-9.28zm44.47 0a9.29 9.29 0 1 0 -9.29 9.28 9.29 9.29 0 0 0 9.29-9.28z" fill="#b5b5b5"/></svg>